# xmcd
#
# Track frame offsets:
# 150
# 14307
# 24916
# 38220
# 52050
# 66968
# 80633
# 95599
# 110741
# 123374
# 137821
# 150237
# 164623
# 181720
# 192511
# 206454
# 218946
# 232781
# 243826
# 256692
# 270456
# 284245
# 296817
# 310449
# 322584
#
# Disc length: 4468 seconds
#
#
# Revision: 2
# Processed by: cddbd v1.5.1PL0 Copyright (c) Steve Scherf et al.
# Submitted via: FreeRIP 2.942 
#
DISCID=67117219
DTITLE=Jazz Women - 50 Sublimes Chanteuses de Jazz 1940-1953
DYEAR=2002
DGENRE=Jazz
TTITLE0=40 Maxine Sullivan - St. Louis Blues
TTITLE1=40 Valaida Snow - You're Driving Me Crazy
TTITLE2=40 Ella Johnson and Buddy Johnson Band - Please, Mr. Johnson
TTITLE3=40 Una Mae Carlisle - Walkin' By The River
TTITLE4=40 Helen Ward and Teddy Wilson Orchestra - Embraceable You
TTITLE5=41 Mildred Bailey - Lover, Come Back To Me
TTITLE6=41 Ivie Anderson and Duke Ellington Orchestra - I Got It Bad And That Ain't Good
TTITLE7=41 Peggy Lee and Benny Goodman Sextet - Where Or When
TTITLE8=41 Sister Rosetta Tharpe - Rock Me
TTITLE9=41 Helen Forrest and Harry James Orchestra - But Not For Me
TTITLE10=42 Bonnie Davis and Bunny Banks Trio - Don't Stop Now
TTITLE11=43 June Richmond and Andy Kirks Clouds of Joy - Baby Don't You Tell Me No Lie
TTITLE12=44 Ida James and King Cole Trio - Close To You
TTITLE13=44 Bette Roché and Earl Hines Sextet - I'll Get By (As long as I have you)
TTITLE14=44 Dorothy Dandridge and Louis Armstrong Orchestra - Whatcha Say
TTITLE15=44 Joya Sherrill and Duke Ellington Orchestra - I Didn't Know About You
TTITLE16=44 Lee Wiley and Eddie Condon Orchestra - Wherever There's Love
TTITLE17=45 Anita O'Day and gene Krupa Orchestra - Tea For Two
TTITLE18=45 Helen Humes and Her All Stars - He Don't Love Me Anymore
TTITLE19=46 Sarah Vaughan - You Go To My Head
TTITLE20=46 Thelma Carpenter - Seems Like Old Times
TTITLE21=46 Carmen McRae and Mercer Ellington Orchestra - Pass Me By
TTITLE22=46 Kay Davis and Duke Ellington Orchestra - Transblucency
TTITLE23=46 Alice Roberts and Dizzy Gillespie Orchestra - He Beeped When He Should Have Bopped
TTITLE24=46 Lena Horne - Whispering
EXTD=
EXTT0=
EXTT1=
EXTT2=
EXTT3=
EXTT4=
EXTT5=
EXTT6=
EXTT7=
EXTT8=
EXTT9=
EXTT10=
EXTT11=
EXTT12=
EXTT13=
EXTT14=
EXTT15=
EXTT16=
EXTT17=
EXTT18=
EXTT19=
EXTT20=
EXTT21=
EXTT22=
EXTT23=
EXTT24=
PLAYORDER=
